<svg width="2000" height="2000" viewBox="0 0 2000 2000" fill="none" xmlns="http://www.w3.org/2000/svg">
<path fill-rule="evenodd" clip-rule="evenodd" d="M684.801 798.722C684.609 797.888 684.055 795.971 683.085 790.123C679.909 771.114 681.778 726.013 703.45 676.059C707.244 667.308 710.701 658.357 715.232 650.008C722.363 636.877 729.838 623.972 738.758 611.868C747.661 599.789 757.783 588.961 768.627 578.847C776.054 571.925 784.236 565.789 792.497 559.765C804.432 551.071 816.824 543.282 830.067 536.962C839.379 532.518 849.06 528.861 858.637 525.011C869.762 520.543 881.208 517.199 892.95 514.728C898.621 513.541 904.243 512.258 909.978 511.351C917.277 510.196 924.552 509.025 931.947 509.242C936.263 509.378 940.61 509.699 944.853 510.453C946.529 510.75 949.168 512.378 949.24 513.533C949.393 515.963 951.879 518.506 948.414 521.249C941.484 526.727 934.113 530.73 925.33 531.732C917.839 532.583 910.211 532.671 902.848 534.155C894.41 535.863 886.622 539.472 880.293 545.785C876.531 549.539 872.345 552.851 868.583 556.605C863.016 562.187 855.773 564.289 848.691 566.631C843.093 568.484 837.173 569.35 831.623 571.307C825.31 573.529 819.014 576.039 813.135 579.232C807.753 582.151 803.004 586.25 797.847 589.627C790.227 594.616 785.198 601.987 779.872 609.093C776.752 613.248 775.429 618.189 774.723 623.258C774.546 624.477 775.092 625.849 775.533 627.068C775.629 627.325 777.009 627.517 777.314 627.228C780.265 624.405 782.888 621.213 786.016 618.63C793.091 612.807 800.518 607.433 808.795 603.463C817.771 599.163 827.147 596.292 837.053 594.736C845.675 593.388 854.402 592.474 862.792 589.571C871.799 586.45 880.317 582.248 888.619 577.756C896.471 573.521 904.436 569.863 913.042 567.922C920.036 566.342 927.223 564.987 934.41 565.676C941.428 566.342 948.374 567.818 955.344 568.997C955.681 569.053 956.138 569.751 956.122 570.128C956.106 570.497 955.609 570.914 955.248 571.203C952.713 573.168 950.01 574.941 947.628 577.09C936.591 587.044 930.399 599.645 926.982 614.122C925.298 621.237 922.763 628.56 916.419 633.324C913.042 635.859 909.617 638.385 905.96 640.463C900.377 643.631 897.361 648.997 893.856 653.954C892.758 655.51 892.108 657.379 891.049 658.967C887.231 664.686 887.183 675.129 889.653 676.773C892.774 678.858 905.679 663.827 906.85 662.464C911.141 657.459 916.387 653.224 922.274 649.967C932.445 644.353 941.725 637.487 949.112 628.415C954.382 621.927 958.921 614.836 964.031 608.211C971.225 598.883 978.781 589.739 989.97 585.127C998.408 581.646 1006.97 580.058 1015.02 586.9C1017.25 588.793 1018.6 591.086 1019.72 593.453C1024.38 603.326 1028.31 613.569 1033.35 623.234C1036.53 629.322 1040.65 635.137 1045.32 640.158C1053.01 648.427 1061.53 655.879 1069.58 663.811C1079.05 673.156 1085.93 684.184 1090.14 696.905C1090.86 699.047 1091.98 701.052 1092.91 703.121C1095.7 708.199 1097.75 712.819 1100.26 717.174C1101.2 718.818 1102.98 720.414 1104.73 721.048L1105.19 721.192L1104.88 720.96C1109.54 721.738 1111.67 719.083 1112.07 715.682C1113.07 707.14 1110.38 697.346 1109.68 694.05C1107.28 682.805 1103.16 675.297 1095.54 662.183C1091.09 654.515 1085.02 647.834 1080.07 640.431C1075.7 633.918 1070.76 627.686 1068.53 619.905C1067.56 616.464 1066.52 613.096 1066.63 609.414C1066.83 603.238 1069.87 599.629 1075.97 598.241C1084.57 596.276 1091.47 599.581 1098.14 604.602C1107.64 611.772 1112.73 622.536 1120.14 631.399C1122.84 634.624 1125.63 637.76 1128.42 640.904C1135.16 648.508 1142.37 653.448 1145.47 655.55C1154.3 661.541 1160.37 664.068 1160.8 664.373C1161.38 664.782 1168.63 666.354 1168.12 664.333C1167.08 660.154 1165.92 659.384 1158.46 647.561C1153.06 639.011 1148.78 629.899 1144.66 620.643C1138.79 607.465 1132.62 594.215 1120.93 584.943C1114.91 580.154 1108.26 576.28 1100.96 573.826C1098.96 573.16 1096.6 573.601 1094.41 573.417C1094.07 573.393 1093.54 572.767 1093.53 572.398C1093.51 572.013 1093.96 571.323 1094.3 571.251C1105.54 569.005 1115.72 563.431 1126.79 560.663C1137.21 558.065 1146.91 553.501 1156.77 549.41C1161.21 547.565 1165.38 544.903 1169.46 542.28C1174.91 538.791 1175.67 538.759 1180.61 542.512C1185.97 546.595 1191.53 550.413 1196.87 554.528C1199.88 556.854 1202.74 559.428 1205.48 562.083C1216.17 572.398 1227.07 582.488 1237.28 593.26C1243.68 600.022 1248.81 607.986 1254.79 615.173C1267.6 630.557 1277.03 648.01 1285.37 666.081C1292.49 681.513 1298.88 697.29 1303.97 713.533C1306.17 720.559 1307.22 727.954 1308.88 735.157C1310.18 740.795 1310.42 746.578 1311.29 752.233C1312.09 757.35 1312.09 764.377 1312.42 767.176C1312.49 767.793 1312.34 767.801 1312.92 774.972C1313.12 777.418 1311.85 776.36 1311.79 776.239C1308.24 769.149 1302.03 764.521 1300.06 762.837C1295.85 759.227 1286.9 754.511 1284.41 763.703C1283.67 766.47 1282.56 766.149 1280.77 765.139C1277.77 763.43 1274.57 762.604 1271.09 762.869C1267.11 763.181 1263.95 766.021 1263.11 770.184C1262.63 772.574 1261.9 774.226 1258.8 774.258C1256.71 774.29 1254.42 775.999 1252.85 778.469C1250.7 781.838 1251.22 782.688 1252.31 788.527C1252.81 791.222 1252.08 791.519 1249.39 793.091C1246.48 794.784 1245.31 798.241 1246.89 802.219C1248.43 806.077 1250 810.111 1252.45 813.384C1258.32 821.188 1262.53 829.682 1265.45 838.994C1267.27 844.834 1268.53 850.649 1268.77 856.785C1268.97 861.894 1267.51 867.132 1269.74 872.137C1269.9 872.497 1268.96 873.267 1268.73 873.909C1266.75 879.54 1265.2 885.267 1264.15 891.178C1262.02 903.225 1260.43 915.353 1257.74 927.328C1255.73 936.255 1253.82 945.158 1250.8 953.781C1249.03 958.85 1247.17 963.911 1245.02 968.828C1237.77 985.391 1228.23 1000.68 1218.36 1015.71C1214.02 1022.31 1208.6 1028.2 1203.61 1034.36C1201.32 1037.19 1199.07 1040.08 1196.49 1042.64C1182.78 1056.23 1167.66 1068.01 1151.58 1078.62C1138.06 1087.56 1123.73 1094.95 1109.33 1102.18C1103.18 1105.27 1096.66 1107.58 1090.44 1110.52C1089.12 1111.14 1089.04 1111.15 1089 1109.87C1088.84 1105.33 1089.02 1100.91 1091.18 1096.69C1093.37 1092.37 1095.13 1087.82 1097.07 1083.37C1098.86 1079.29 1098.3 1076.15 1095.24 1073.03C1094.45 1072.22 1093.66 1071.42 1092.86 1070.64C1091.67 1069.46 1091.43 1068.76 1092.11 1066.63C1094.2 1060.13 1089.79 1052.14 1083.31 1049.8C1079.12 1048.28 1074.74 1049.19 1070.6 1050.42C1064.58 1052.23 1064.44 1052.28 1061.05 1047.54C1059.7 1045.64 1058.25 1043.79 1056.71 1042.03C1053.97 1038.92 1050.79 1038.02 1046.53 1038.93C1043.61 1039.56 1040.81 1040.25 1037.98 1041.29C1032.06 1043.47 1026.04 1043.05 1020.47 1040.15C1017.67 1038.68 1014.87 1038.31 1011.88 1037.86C1008.02 1037.28 1004.47 1037 1000.48 1037.77C993.451 1039.13 987.219 1041.62 981.34 1045.7C975.861 1049.49 971.65 1054.29 968.49 1060.02C965.515 1065.43 963.814 1071.28 965.811 1077.48C966.341 1079.12 966.325 1080.12 965.178 1081.38C962.21 1084.6 959.419 1088 956.411 1091.19C955.962 1091.66 954.574 1091.6 953.796 1091.31C941.861 1086.85 929.734 1082.97 917.999 1077.92C902.006 1071.05 885.868 1064.5 870.644 1055.97C860.033 1050.04 849.549 1043.85 839.162 1037.5C832.433 1033.4 825.88 1028.96 819.431 1024.4C814.482 1020.9 809.782 1017.02 805.042 1013.22C802.355 1011.07 799.636 1008.9 797.237 1006.43C792.898 1001.94 788.623 997.35 784.621 992.545C780.851 988.013 777.33 983.257 773.953 978.421C765.836 966.798 758.176 955 752.754 941.645C749.257 933.015 747.051 924.103 744.268 915.337C743.089 911.615 743.129 907.428 743.065 903.442C742.92 892.927 742.88 882.403 743.065 871.88C743.185 865.078 743.185 858.196 744.268 851.515C745.864 841.681 748.022 831.968 752.184 822.728C754.51 817.563 757.446 812.502 757.663 806.374C757.855 801.088 757.815 799.981 753.179 797.374C752.505 796.997 750.187 796.925 751.334 794.006C751.583 793.364 752.754 790.388 751.856 785.415C751.567 783.811 750.604 782.704 749.714 782.087C746.433 779.817 742.415 781.573 742.134 781.67C741.677 781.814 739.086 783.562 738.685 784.012C738.645 784.052 738.316 784.421 738.188 784.525C737.346 785.287 737.354 785.295 737.354 785.303C736.776 785.648 736.841 784.774 736.929 784.132C737.474 780.146 737.747 780.121 736.953 776.175C736.56 774.194 732.261 769.59 726.125 773.801C723.398 775.678 720.358 778.549 719.5 779.712C717.35 782.664 717.246 779.809 717.262 779.624C717.47 777.114 716.813 775.534 716.676 775.205C714.751 770.593 711.118 769.438 706.049 771.435C702.295 772.911 698.196 775.213 690.328 787.493C688.218 790.781 686.47 796.291 684.801 798.722Z" fill="#E14507"/>
<path fill-rule="evenodd" clip-rule="evenodd" d="M874.648 447.513C873.333 447.032 869.306 445.54 858.374 440.856C858.053 440.72 856.112 439.886 854.572 438.626C852.23 436.709 855.222 437.56 856.024 437.712C860.299 438.53 866.443 440.888 874.071 442.637C886.455 445.476 899.16 446.727 911.143 451.572C918.346 454.492 925.252 457.572 931.051 462.913C937.909 469.234 944.742 475.586 951.841 481.618C961.851 490.12 972.23 498.125 983.627 504.742C990.581 508.777 998.033 511.624 1005.72 513.364C1012.29 514.84 1018.98 515.378 1025.6 511.592C1035.18 506.114 1045.55 502.039 1055.08 496.489C1066.91 489.607 1077.42 481.097 1086.12 470.092C1096.52 456.946 1104.85 442.34 1115.28 429.306C1122.4 420.411 1131.48 413.633 1142.45 410.032C1149.03 407.866 1155.79 406.19 1162.8 406.623C1169.85 407.064 1176.53 408.981 1182.8 412.262C1183.58 412.663 1184.27 413.289 1184.9 413.906C1185.09 414.091 1185.12 414.788 1184.95 414.941C1184.72 415.133 1184.22 415.085 1183.85 415.037C1178.1 414.291 1172.48 414.612 1166.65 415.414C1156.7 416.778 1147.83 420.612 1139.74 426.018C1128.76 433.357 1121.84 444.129 1118.09 456.786C1115.85 464.341 1114.09 472.073 1112.5 479.805C1110.69 488.564 1108.11 496.89 1100.63 502.416C1096 505.833 1090.84 508.496 1086.03 511.672C1077.99 516.974 1069.61 521.859 1063.1 529.206C1061.93 530.529 1060.62 531.941 1060.07 533.553C1058.73 537.435 1061.33 540.788 1066.27 541.863C1067.33 542.095 1068.51 542.031 1069.6 541.879C1083.17 539.97 1097.02 539.135 1109.84 533.882C1118.75 530.224 1127.22 525.452 1135.82 521.064C1162.78 507.317 1162.12 504.638 1187.12 501.855C1190.01 501.534 1206.73 499.681 1223.43 504.453C1246.41 511.014 1252.52 516.621 1251.61 516.846C1246.45 518.137 1245.45 511.688 1217.02 513.918C1206.65 514.728 1196.5 517.688 1187.09 522.404C1182.14 524.89 1177.38 527.922 1172.83 531.139C1159.68 540.451 1145.24 547.012 1130.06 552.041C1120.89 555.073 1111.55 557.68 1102.57 561.193C1096.05 563.743 1089.53 566.663 1084.83 572.478C1083.27 574.427 1083.75 574.989 1085.65 575.735C1089.33 577.186 1092.88 579.071 1096.66 580.162C1107 583.162 1115.74 588.696 1122.69 596.885C1128.4 603.599 1132.37 611.371 1136.03 619.456C1138.7 625.375 1141.25 632.594 1144.25 638.233C1147.82 644.954 1150.3 647.072 1150.74 647.802C1151.37 648.852 1151.18 649.59 1151.14 649.743C1150.96 650.481 1149.16 649.486 1149.14 649.462C1147.64 648.098 1134.33 640.054 1121.4 621.245C1117.03 614.892 1112.88 608.379 1107.46 602.861C1101.53 596.837 1094.39 592.386 1086.28 590.701C1078.68 589.121 1070.71 589.988 1064.58 595.586C1062.18 597.784 1060.46 600.96 1059.83 604.818C1057.98 616.248 1062.24 625.873 1067.96 634.936C1074.95 645.997 1082.68 656.576 1089.94 667.469C1097.07 678.153 1102.26 689.703 1104.68 702.456C1105.46 706.554 1109.19 714.254 1107.32 715.514C1106.65 715.947 1101.22 704.316 1100.23 701.67C1095.55 689.334 1090.67 677.062 1081.73 667.172C1074.5 659.151 1066.62 651.716 1058.98 644.064C1052.56 637.631 1046.25 631.175 1041.56 623.178C1036.18 613.978 1032.32 604.176 1028.45 594.279C1025.2 585.977 1019.29 579.456 1010.67 576.079C1004.76 573.769 998.915 574.588 993.004 576.264C983.916 578.839 976.529 583.964 969.824 590.581C961.53 598.746 955.298 608.484 948.352 617.691C941.326 627.004 933.417 635.498 923.054 641.048C918.659 643.406 915.001 646.101 912.258 648.347C911.448 649.013 906.347 653.2 902.681 657.314C902.433 657.595 900.451 659.817 899.192 660.354C897.596 661.036 899.561 658.028 900.516 656.183C904.285 648.925 915.234 642.548 918.859 640.118C926.455 635.025 930.457 627.934 932.751 619.448C936.369 606.021 940.612 592.907 951.472 583.33C956.084 579.256 960.672 575.117 965.637 571.508C967.016 570.497 966.8 570.609 966.326 569.27C965.083 565.773 962.821 564.497 959.356 563.102C946.836 558.081 933.81 557.96 920.969 559.075C908.729 560.134 897.131 564.69 886.078 570.377C877.343 574.868 868.97 580.178 859.369 582.793C854.628 584.084 849.944 585.311 845.019 585.993C823.7 588.929 809.567 593.348 796.405 602.524C794.432 603.904 793.726 603.663 793.494 603.583C792.916 603.382 793.967 601.489 794.857 600.784C805.982 591.88 815.575 585.319 826.267 581.317C831.921 579.208 837.744 577.563 843.495 575.726C852.206 572.943 861.31 571.371 868.97 565.66C873.517 562.268 877.768 558.65 881.699 554.584C886.952 549.145 892.824 544.694 900.219 542.6C903.636 541.638 907.012 540.876 910.622 540.683C921.025 540.138 931.588 539.408 941.117 534.876C946.555 532.286 951.825 529.037 955.45 523.326C957.447 520.19 957.889 517.15 957.127 514.519C954.576 505.745 950.598 497.491 944.75 490.441C939.938 484.618 934.949 478.827 929.342 473.814C920.544 465.953 910.261 460.331 899.224 456.216C891.147 453.208 882.701 450.497 874.648 447.513Z" fill="#1D6813"/>
<path fill-rule="evenodd" clip-rule="evenodd" d="M969.021 1087.59C970.874 1086.09 972.197 1085.2 973.448 1084.23C975.486 1082.64 976.079 1080.59 974.475 1078.49C970.168 1072.87 972.269 1067.46 975.237 1062.45C980.458 1053.61 988.535 1048.58 998.273 1045.81C1006.24 1043.54 1013.67 1044.75 1020.97 1048.14C1026.88 1050.87 1032.79 1051.15 1038.85 1048.65C1040.61 1047.93 1042.49 1047.56 1044.31 1047C1050.65 1045.03 1051.6 1045.47 1054.88 1051.39C1056.73 1054.71 1058.76 1057.65 1062.97 1058.68C1065.16 1059.21 1066.95 1059.58 1069.06 1058.73C1071.14 1057.91 1073.35 1057.42 1075.47 1056.7C1081.66 1054.64 1085.35 1058.25 1084.67 1064.87C1084.2 1069.33 1083.35 1074.25 1088.99 1077.11C1091.25 1078.25 1090.41 1081.13 1089.25 1083.47C1087.34 1087.35 1085.98 1091.51 1084.03 1095.36C1079.47 1104.41 1080.73 1113.28 1084.67 1122.01C1086.09 1125.18 1088.17 1128.08 1090.14 1130.98C1093.69 1136.21 1094.03 1137.13 1093.45 1143.87C1093.17 1147.1 1093 1150.38 1092.27 1153.52C1091.59 1156.43 1090.46 1158.91 1086.77 1159.94C1083.39 1160.89 1080.5 1163.58 1077.29 1165.31C1075.49 1166.28 1073.4 1167.67 1071.58 1167.5C1062.6 1166.67 1055.86 1170.94 1049.53 1176.48C1048.88 1177.03 1048.03 1177.35 1047.28 1177.79C1047.06 1176.97 1046.89 1176.13 1046.58 1175.34C1044.32 1169.63 1047.49 1165.72 1050.76 1161.67C1056.28 1154.83 1062.25 1148.24 1066.81 1140.77C1075.26 1126.92 1071.51 1113.01 1058.41 1104.71C1057.02 1103.83 1055.05 1103.89 1053.41 1103.35C1049.7 1102.14 1046.4 1100.43 1043.47 1097.57C1038.19 1092.41 1031.75 1088.64 1024.28 1088.86C1013.3 1089.17 1003.04 1092.34 996.34 1101.93C993.412 1106.11 991.367 1111.12 989.787 1116.04C987.709 1122.55 984.862 1128.62 981.99 1134.76C980.515 1137.92 978.838 1137.16 977.162 1136.01C972.349 1132.71 967.425 1130.04 961.505 1129.2C957.872 1128.69 956.284 1125.78 956.171 1121.65C955.955 1113.48 956.444 1105.57 960.551 1098.12C962.805 1094.02 965.885 1090.83 969.021 1087.59Z" fill="black"/>
<path fill-rule="evenodd" clip-rule="evenodd" d="M969.021 1087.59C970.874 1086.09 972.197 1085.2 973.448 1084.23C975.486 1082.64 976.079 1080.59 974.475 1078.49C970.168 1072.87 972.269 1067.46 975.237 1062.45C980.458 1053.61 988.535 1048.58 998.273 1045.81C1006.24 1043.54 1013.67 1044.75 1020.97 1048.14C1026.88 1050.87 1032.79 1051.15 1038.85 1048.65C1040.61 1047.93 1042.49 1047.56 1044.31 1047C1050.65 1045.03 1051.6 1045.47 1054.88 1051.39C1056.73 1054.71 1058.76 1057.65 1062.97 1058.68C1065.16 1059.21 1066.95 1059.58 1069.06 1058.73C1071.14 1057.91 1073.35 1057.42 1075.47 1056.7C1081.66 1054.64 1085.35 1058.25 1084.67 1064.87C1084.2 1069.33 1083.35 1074.25 1088.99 1077.11C1091.25 1078.25 1090.41 1081.13 1089.25 1083.47C1087.34 1087.35 1085.98 1091.51 1084.03 1095.36C1079.47 1104.41 1080.73 1113.28 1084.67 1122.01C1086.09 1125.18 1088.17 1128.08 1090.14 1130.98C1093.69 1136.21 1094.03 1137.13 1093.45 1143.87C1093.17 1147.1 1093 1150.38 1092.27 1153.52C1091.59 1156.43 1090.46 1158.91 1086.77 1159.94C1083.39 1160.89 1080.5 1163.58 1077.29 1165.31C1075.49 1166.28 1073.4 1167.67 1071.58 1167.5C1062.6 1166.67 1055.86 1170.94 1049.53 1176.48C1048.88 1177.03 1048.03 1177.35 1047.28 1177.79C1047.06 1176.97 1046.89 1176.13 1046.58 1175.34C1044.32 1169.63 1047.49 1165.72 1050.76 1161.67C1056.28 1154.83 1062.25 1148.24 1066.81 1140.77C1075.26 1126.92 1071.51 1113.01 1058.41 1104.71C1057.02 1103.83 1055.05 1103.89 1053.41 1103.35C1049.7 1102.14 1046.4 1100.43 1043.47 1097.57C1038.19 1092.41 1031.75 1088.64 1024.28 1088.86C1013.3 1089.17 1003.04 1092.34 996.34 1101.93C993.412 1106.11 991.367 1111.12 989.787 1116.04C987.709 1122.55 984.862 1128.62 981.99 1134.76C980.515 1137.92 978.838 1137.16 977.162 1136.01C972.349 1132.71 967.425 1130.04 961.505 1129.2C957.872 1128.69 956.284 1125.78 956.171 1121.65C955.955 1113.48 956.444 1105.57 960.551 1098.12C962.805 1094.02 965.885 1090.83 969.021 1087.59Z" fill="black"/>
<path fill-rule="evenodd" clip-rule="evenodd" d="M1080.6 532.928C1075.18 533.064 1068.74 534.757 1068.99 533.481C1069.1 532.952 1069.19 532.944 1078.95 525.549C1085.06 521.266 1090.59 517.552 1096.13 513.83C1102.23 509.74 1104.29 512.395 1108.78 513.798C1114.81 515.683 1133.29 516.597 1125.07 519.677C1113.47 524.033 1110.16 526.471 1101.7 528.605C1094.71 530.369 1087.9 532.735 1080.6 532.928Z" fill="#E14507"/>
<path d="M1337.88 804.592C1338.88 821.941 1332.15 836.235 1323.66 849.934C1321.98 852.645 1319.99 855.164 1318.16 857.787C1315.03 862.278 1314.94 867.476 1315.68 872.465C1316.71 879.427 1318.54 886.269 1320.03 893.166C1322.26 903.505 1324.73 913.804 1326.64 924.207C1327.84 930.76 1328.19 937.474 1328.95 944.107C1330.23 955.159 1333.67 969.34 1327.49 996.114C1324.41 1009.49 1324.29 1009.43 1319.99 1022.49C1318.36 1027.42 1316.58 1032.35 1314.4 1037.05C1309.35 1047.92 1304.35 1058.83 1298.73 1069.39C1292.53 1081.05 1286.01 1092.57 1277.59 1102.84C1272.32 1109.26 1267.43 1116.07 1261.7 1122.06C1256.04 1127.97 1249.42 1132.93 1243.43 1138.54C1237.24 1144.31 1230.54 1149.38 1223.54 1154.04C1218.87 1157.14 1214.29 1160.42 1209.37 1163.06C1196.43 1170.01 1183.5 1177.01 1170.24 1183.3C1160.31 1188.02 1150.02 1192.1 1139.63 1195.73C1122.53 1201.71 1105.07 1206.66 1088.07 1212.92C1079.4 1216.11 1070.82 1219.77 1062.77 1224.8C1055.26 1229.49 1047.32 1233.55 1040.08 1238.71C1034.27 1242.84 1028.56 1247.15 1023.12 1251.77C1017.66 1256.41 1012.19 1261.18 1007.46 1266.54C1000.8 1274.1 994.662 1282.14 988.606 1290.2C983.874 1296.49 980.473 1303.62 976.824 1310.6C975.26 1313.59 976.054 1314.85 978.059 1316.62C982.053 1320.13 985.999 1323.69 989.833 1327.37C994.646 1332 997.686 1337.81 999.659 1344.11C1001.99 1351.56 1003.57 1359.31 1000.71 1366.88C998.504 1372.73 1000.5 1377.85 1002.47 1382.78C1007.72 1395.91 1014.25 1408.46 1022.12 1420.2C1026.41 1426.61 1031.33 1432.62 1036.34 1438.49C1043.37 1446.72 1051.06 1454.4 1057.9 1462.78C1064.44 1470.8 1069.55 1479.84 1072.53 1489.88C1073.88 1494.42 1074.32 1499.25 1075.68 1503.8C1077.42 1509.64 1076.71 1515.54 1076.64 1521.39C1076.55 1529.47 1075.01 1537.42 1072.87 1545.16C1070.42 1554.04 1067.71 1562.9 1064.31 1571.45C1061.8 1577.73 1057.87 1583.36 1052.87 1588.1C1051.44 1589.45 1050.31 1589.66 1048.61 1588.59C1044.05 1585.69 1039.35 1583.05 1034.77 1580.17C1027.69 1575.7 1020.06 1572.02 1012.04 1570.41C1003.89 1568.79 995.255 1568.71 986.906 1569.22C970.407 1570.2 948.743 1578.66 924.736 1561.37C919.475 1557.59 911.767 1550.37 910.243 1549.33C910.098 1549.23 909.256 1548.66 907.981 1549.51C906.802 1550.3 906.81 1559.09 905.895 1563.93C904.821 1569.59 903.698 1575.22 900.906 1580.45C896.703 1588.31 887.327 1591.61 879.034 1587.62C867.516 1582.06 861.861 1571.85 856.928 1561C854.995 1556.75 853.551 1552.2 852.517 1547.64C851.939 1545.1 850.84 1543.6 848.595 1543.14C846.477 1542.72 845.146 1543.62 843.469 1545.56C839.218 1550.47 835.184 1555.45 832.681 1561.42C830.676 1566.22 829.609 1571.41 827.788 1576.28C825.703 1581.88 823.914 1587.56 819.27 1591.95C814.827 1596.14 809.71 1598.21 803.975 1598.22C795.392 1598.25 786.738 1596.76 778.228 1597.44C770.921 1598.03 763.55 1598.33 756.227 1599.17C746.834 1600.26 736.88 1600.83 728.122 1595.98C717.293 1589.97 713.219 1580.68 717.863 1568.05C720.494 1560.91 725.844 1555.58 731.739 1551.01C742.15 1542.92 747.131 1541.03 755.713 1531.87C756.411 1531.12 760.397 1525.94 760.101 1525.59C759.483 1524.87 757.823 1525.41 756.908 1525.52C751.791 1526.11 734.626 1526.83 725.298 1522.83C715.802 1518.77 716.195 1512.52 720.486 1510.46C723.582 1508.98 726.894 1507.57 730.239 1507.11C740.987 1505.6 750.468 1501.07 759.491 1495.38C764.255 1492.38 768.916 1489.19 773.415 1485.79C777.73 1482.55 782.022 1479.19 785.888 1475.42C795.432 1466.13 806.333 1458.76 817.53 1451.79C825.928 1446.56 834.149 1441.17 841.905 1434.93C850.199 1428.25 856.527 1420.05 862.703 1411.54C866 1407.01 869.737 1402.81 873.315 1398.49C877.373 1393.6 881.223 1388.51 885.627 1383.96C890.8 1378.6 902.19 1372.09 896.294 1372.58C895.284 1372.66 881.913 1379.03 880.678 1379.61C872.89 1383.32 865.31 1387.51 857.345 1390.77C848.41 1394.42 839.363 1397.83 829.866 1400.02C823.088 1401.59 816.255 1401.57 809.685 1400.76C801.568 1399.76 794.085 1396.45 787.668 1390.54C779.006 1382.56 774.755 1372.48 772.092 1361.48C769.79 1351.97 767.897 1342.33 768.739 1332.46C769.373 1324.98 770.528 1317.57 771.851 1310.15C775.06 1292.11 782.727 1275.93 791.165 1260.14C797.927 1247.47 805.587 1235.21 815.501 1224.64C823.233 1216.41 830.86 1208.05 838.841 1200.06C843.18 1195.71 848.169 1192.04 852.838 1188.02C854.482 1186.62 854.883 1185.5 853.832 1182.91C850.824 1175.51 846.726 1168.83 842.138 1162.45C836.507 1154.64 830.524 1147.12 823.706 1140.23C807.873 1124.23 792.385 1107.88 776.68 1091.75C767.576 1082.39 757.911 1073.55 749.232 1063.81C735.028 1047.87 721.416 1031.39 710.107 1013.14C708.182 1010.05 706.658 1006.69 704.941 1003.46C702.014 997.927 698.982 992.44 696.159 986.842C686.028 966.717 678.24 936.359 681.312 911.807C681.97 906.505 682.555 901.027 682.86 899.615C686.149 884.247 690.801 882.555 682.852 869.481C677.221 860.217 671.366 851.041 666.377 841.416C662.214 833.371 660.658 824.388 661.677 815.284C661.91 813.199 663.947 806.1 666.995 804.416C668.286 803.702 670.227 803.229 672.473 803.413C675.04 803.63 676.62 804.681 676.933 804.889C677.237 805.09 678.352 805.539 678.906 805.122C679.066 805.001 664.773 762.379 689.477 692.79C691.972 685.764 694.53 678.737 697.538 671.928C702.447 660.819 707.428 649.718 712.978 638.93C718.368 628.447 724.921 618.629 731.747 608.988C741.163 595.674 752.489 584.116 764.255 573.071C774.931 563.053 786.682 554.318 798.986 546.33C810.086 539.127 821.693 532.927 833.588 527.256C846.678 521.008 860.345 516.195 874.077 511.72C882.346 509.025 891.113 507.934 899.567 505.776C913.266 502.271 927.191 502.231 941.155 502.424C944.058 502.456 944.363 502.014 942.767 499.737C934.682 488.203 925.185 478.136 913.026 470.854C901.067 463.683 887.72 459.945 874.815 455.181C864.059 451.219 853.247 447.216 844.175 440.23C837.622 435.185 831.021 429.57 827.572 421.477C826.962 420.05 826.674 418.317 826.802 416.769C826.97 414.619 828.927 414.098 830.588 415.59C838.945 423.073 848.739 427.934 859.262 431.383C867.604 434.118 876.218 435.538 884.825 437.174C897.578 439.588 910.363 442.019 922.162 448.147C927.856 451.106 932.901 454.86 937.866 458.726C942.639 462.432 946.842 466.867 951.285 470.99C964.239 483.013 977.81 494.138 993.932 501.718C1001.26 505.167 1008.8 507.236 1016.9 506.899C1018.24 506.843 1019.67 506.402 1020.89 505.784C1031.81 500.202 1042.89 494.892 1053.53 488.804C1063.36 483.19 1071.89 475.979 1079.23 466.987C1086.37 458.221 1092.29 448.644 1099.13 439.709C1102.49 435.321 1105.49 430.669 1108.87 426.266C1114.82 418.502 1122.05 412.646 1130.27 407.681C1136.76 403.767 1143.91 400.88 1151.09 400.118C1181.84 396.877 1187.96 408.227 1194.65 413.039C1197.68 415.221 1201.01 417.491 1199.27 421.365C1198.72 422.576 1196.05 423.499 1194.4 423.386C1190.01 423.081 1185.65 422.135 1181.28 421.485C1180.21 421.325 1179.1 421.213 1178.03 421.277C1165.97 421.959 1154.3 424.686 1144.36 431.592C1136.98 436.733 1131.34 443.767 1127.53 452.502C1123.75 461.196 1122.13 470.228 1120.13 479.316C1118.68 485.909 1117.72 492.823 1113.55 498.517C1112.27 500.258 1110.86 501.886 1109.6 503.635C1108.35 505.375 1108.93 506.618 1110.95 506.955C1117.99 508.142 1125.06 509.153 1131.68 512.177C1132.81 512.698 1134.55 512.522 1135.76 512.041C1139.27 510.637 1142.77 509.121 1146.08 507.284C1154.59 502.584 1173.43 494.964 1185.21 494.274C1212.77 492.654 1231.55 499.512 1235.35 500.908C1248.56 505.736 1260.95 512.041 1271.5 521.617C1274.89 524.689 1278.26 527.777 1281.7 530.777C1283.91 532.702 1283.64 535.044 1282.67 537.266C1281.86 539.079 1279.29 539.119 1276.46 537.354C1273.02 535.229 1269.82 532.718 1266.36 530.657C1259.59 526.622 1252.15 524.2 1244.49 522.812C1237.99 521.649 1231.28 520.238 1224.79 520.671C1209.71 521.682 1195.06 524.609 1182.15 533.697C1179.19 535.782 1181.91 535.943 1182.29 536.183C1185.8 538.445 1189.49 540.41 1192.98 542.704C1195.94 544.653 1198.83 546.771 1201.53 549.073C1214.43 560.125 1226.75 571.82 1238.52 584.108C1245.19 591.078 1251.42 598.393 1257.06 606.237C1262.27 613.472 1267.77 620.49 1272.76 627.877C1276.28 633.075 1279.31 638.633 1282.26 644.176C1286.36 651.844 1290.56 659.488 1294.06 667.428C1298.59 677.735 1302.81 688.218 1306.54 698.838C1315.86 725.387 1317.32 738.533 1317.72 742.086C1318.43 748.551 1318.72 753.411 1318.78 754.398C1319.83 772.268 1320.04 772.22 1319.95 778.886C1319.83 786.546 1317.95 794.342 1318.99 794.414C1320.97 794.558 1321.46 790.748 1325.35 788.551C1328.87 786.57 1332.68 787.941 1335.67 793.572C1337.42 796.868 1338.22 800.309 1337.88 804.592ZM1092.91 703.121C1091.98 701.051 1090.86 699.046 1090.15 696.905C1085.93 684.184 1079.05 673.155 1069.58 663.811C1061.53 655.878 1053.01 648.427 1045.32 640.157C1040.65 635.136 1036.53 629.321 1033.35 623.233C1028.31 613.568 1024.38 603.326 1019.72 593.452C1018.6 591.086 1017.25 588.792 1015.02 586.899C1006.97 580.057 998.408 581.645 989.97 585.126C978.773 589.738 971.225 598.882 964.03 608.21C958.921 614.836 954.381 621.926 949.104 628.415C941.724 637.486 932.444 644.352 922.274 649.967C916.387 653.223 911.141 657.458 906.85 662.463C905.679 663.827 892.773 678.858 889.653 676.772C887.183 675.128 887.231 664.685 891.041 658.966C892.108 657.378 892.757 655.509 893.856 653.953C897.361 648.996 900.377 643.63 905.96 640.462C909.617 638.385 913.042 635.858 916.419 633.324C922.763 628.559 925.298 621.236 926.982 614.122C930.399 599.644 936.591 587.043 947.628 577.089C950.01 574.94 952.713 573.167 955.248 571.202C955.608 570.913 956.106 570.504 956.122 570.127C956.138 569.75 955.681 569.053 955.344 568.996C948.374 567.817 941.428 566.342 934.409 565.676C927.223 564.986 920.036 566.342 913.05 567.922C904.436 569.863 896.471 573.52 888.618 577.755C880.317 582.239 871.799 586.45 862.791 589.57C854.402 592.473 845.675 593.388 837.053 594.735C827.147 596.283 817.77 599.163 808.795 603.462C800.518 607.432 793.09 612.806 786.016 618.629C782.888 621.204 780.265 624.404 777.313 627.228C777.009 627.516 775.629 627.324 775.533 627.067C775.092 625.848 774.546 624.477 774.723 623.257C775.428 618.18 776.752 613.247 779.872 609.093C785.198 601.986 790.227 594.615 797.847 589.626C803.004 586.249 807.752 582.151 813.134 579.231C819.014 576.039 825.31 573.528 831.622 571.306C837.173 569.349 843.092 568.483 848.691 566.63C855.773 564.288 863.016 562.187 868.582 556.604C872.344 552.851 876.531 549.538 880.293 545.784C886.621 539.472 894.41 535.862 902.847 534.154C910.211 532.67 917.838 532.582 925.33 531.732C934.113 530.729 941.484 526.727 948.414 521.248C951.879 518.505 949.392 515.963 949.24 513.532C949.168 512.377 946.529 510.749 944.853 510.452C940.609 509.698 936.262 509.378 931.947 509.241C924.552 509.025 917.277 510.196 909.978 511.351C904.243 512.257 898.612 513.532 892.95 514.727C881.207 517.198 869.762 520.543 858.637 525.01C849.06 528.852 839.379 532.518 830.066 536.961C816.824 543.282 804.424 551.07 792.497 559.764C784.235 565.788 776.054 571.924 768.627 578.846C757.783 588.96 747.66 599.788 738.757 611.868C729.838 623.971 722.363 636.877 715.232 650.007C710.7 658.357 707.243 667.308 703.45 676.059C681.777 726.012 679.908 771.113 683.085 790.123C684.544 798.906 685.058 798.809 684.833 799.547L684.729 798.833C686.421 796.467 688.186 790.837 690.327 787.492C698.196 775.212 702.295 772.91 706.048 771.434C711.117 769.437 714.751 770.592 716.676 775.204C716.812 775.533 717.47 777.113 717.253 779.624C717.245 779.808 717.35 782.663 719.499 779.712C720.349 778.549 723.397 775.677 726.124 773.8C732.26 769.589 736.56 774.193 736.953 776.175C737.747 780.121 737.474 780.145 736.928 784.123C736.84 784.773 736.784 785.647 737.354 785.302C737.354 785.294 737.346 785.286 738.188 784.524C738.316 784.42 738.645 784.051 738.685 784.011C739.078 783.562 741.677 781.813 742.134 781.669C742.415 781.573 746.433 779.816 749.714 782.086C750.596 782.704 751.566 783.81 751.855 785.415C752.754 790.387 751.583 793.363 751.334 794.005C750.187 796.924 752.505 796.997 753.179 797.374C757.815 799.98 757.847 801.087 757.662 806.373C757.446 812.501 754.51 817.562 752.184 822.727C748.021 831.967 745.864 841.681 744.268 851.514C743.185 858.196 743.185 865.077 743.064 871.879C742.88 882.402 742.92 892.926 743.064 903.441C743.121 907.427 743.088 911.614 744.268 915.336C747.051 924.103 749.256 933.014 752.754 941.644C758.176 954.999 765.836 966.798 773.953 978.42C777.329 983.256 780.851 988.021 784.62 992.545C788.623 997.349 792.898 1001.94 797.237 1006.43C799.635 1008.9 802.354 1011.07 805.041 1013.22C809.782 1017.02 814.482 1020.9 819.431 1024.4C825.88 1028.96 832.433 1033.39 839.162 1037.5C849.549 1043.85 860.032 1050.04 870.644 1055.97C885.867 1064.5 902.005 1071.04 917.991 1077.92C929.733 1082.96 941.861 1086.85 953.796 1091.31C954.574 1091.6 955.961 1091.66 956.411 1091.18C959.418 1088 962.21 1084.6 965.177 1081.38C966.324 1080.12 966.34 1079.11 965.811 1077.48C963.814 1071.28 965.514 1065.42 968.49 1060.02C971.65 1054.29 975.861 1049.49 981.339 1045.69C987.219 1041.62 993.451 1039.13 1000.48 1037.77C1004.47 1037 1008.02 1037.28 1011.88 1037.85C1014.87 1038.31 1017.67 1038.68 1020.47 1040.15C1026.04 1043.05 1032.06 1043.47 1037.98 1041.29C1040.81 1040.24 1043.61 1039.55 1046.53 1038.93C1050.79 1038.01 1053.97 1038.92 1056.71 1042.03C1058.25 1043.79 1059.69 1045.63 1061.05 1047.54C1064.44 1052.28 1064.58 1052.24 1070.6 1050.42C1074.74 1049.18 1079.12 1048.28 1083.31 1049.8C1089.79 1052.14 1094.2 1060.13 1092.11 1066.63C1091.43 1068.76 1091.67 1069.46 1092.86 1070.64C1093.66 1071.42 1094.45 1072.22 1095.23 1073.03C1098.3 1076.15 1098.86 1079.29 1097.07 1083.37C1095.13 1087.82 1093.37 1092.37 1091.18 1096.68C1089.02 1100.91 1088.84 1105.33 1088.99 1109.87C1089.04 1111.15 1089.12 1111.14 1090.44 1110.51C1096.66 1107.58 1103.18 1105.27 1109.33 1102.18C1123.73 1094.94 1138.06 1087.56 1151.58 1078.62C1167.66 1068 1182.78 1056.23 1196.49 1042.63C1199.06 1040.08 1201.32 1037.19 1203.61 1034.36C1208.6 1028.19 1214.02 1022.31 1218.36 1015.7C1228.23 1000.68 1237.77 985.39 1245.02 968.827C1247.17 963.91 1249.03 958.849 1250.8 953.78C1253.82 945.149 1255.73 936.254 1257.74 927.327C1260.43 915.352 1262.01 903.225 1264.15 891.177C1265.2 885.266 1266.75 879.539 1268.73 873.908C1268.97 873.267 1269.9 872.497 1269.74 872.136C1267.5 867.131 1268.97 861.893 1268.77 856.784C1268.53 850.648 1267.27 844.825 1265.45 838.994C1262.53 829.682 1258.31 821.187 1252.45 813.383C1250.01 810.111 1248.43 806.076 1246.89 802.218C1245.3 798.24 1246.48 794.783 1249.38 793.091C1252.08 791.518 1252.81 791.222 1252.31 788.527C1251.22 782.688 1250.7 781.837 1252.85 778.461C1254.43 775.998 1256.71 774.282 1258.8 774.258C1261.9 774.226 1262.63 772.573 1263.11 770.183C1263.95 766.02 1267.11 763.181 1271.09 762.868C1274.56 762.603 1277.77 763.429 1280.77 765.138C1282.56 766.149 1283.67 766.469 1284.41 763.702C1286.9 754.51 1295.85 759.227 1300.06 762.836C1302.03 764.52 1308.24 769.148 1311.79 776.239C1311.85 776.359 1313.13 777.418 1312.93 774.971C1312.34 767.801 1312.49 767.793 1312.42 767.175C1312.09 764.376 1312.09 757.35 1311.29 752.232C1310.42 746.578 1310.18 740.795 1308.88 735.156C1307.23 727.953 1306.17 720.558 1303.96 713.532C1298.88 697.29 1292.49 681.513 1285.37 666.081C1277.04 648.01 1267.59 630.556 1254.79 615.172C1248.81 607.986 1243.68 600.021 1237.28 593.259C1227.07 582.487 1216.16 572.397 1205.49 562.083C1202.74 559.428 1199.88 556.853 1196.87 554.527C1191.53 550.412 1185.97 546.594 1180.61 542.512C1175.67 538.75 1174.91 538.79 1169.46 542.279C1165.38 544.902 1161.21 547.565 1156.77 549.41C1146.91 553.5 1137.21 558.064 1126.79 560.663C1115.72 563.43 1105.54 569.004 1094.3 571.25C1093.96 571.322 1093.51 572.012 1093.53 572.397C1093.54 572.766 1094.07 573.392 1094.41 573.416C1096.6 573.6 1098.96 573.159 1100.96 573.825C1108.26 576.279 1114.91 580.153 1120.93 584.942C1132.62 594.214 1138.79 607.464 1144.66 620.643C1148.78 629.899 1153.06 639.01 1158.46 647.561C1165.92 659.383 1167.08 660.153 1168.12 664.332C1168.63 666.353 1161.37 664.781 1160.8 664.372C1160.37 664.067 1154.3 661.541 1145.47 655.549C1142.37 653.448 1135.15 648.507 1128.42 640.903C1125.63 637.759 1122.83 634.623 1120.14 631.399C1112.73 622.536 1107.64 611.772 1098.14 604.601C1091.47 599.58 1084.57 596.275 1075.97 598.24C1069.87 599.628 1066.83 603.237 1066.63 609.413C1066.52 613.095 1067.56 616.464 1068.53 619.905C1070.76 627.685 1075.7 633.917 1080.07 640.43C1085.02 647.833 1091.09 654.515 1095.54 662.182C1103.15 675.297 1107.28 682.804 1109.68 694.049C1110.38 697.346 1113.07 707.139 1112.07 715.681C1111.67 719.082 1109.54 721.737 1104.88 720.959L1105.19 721.192L1104.73 721.047C1102.98 720.414 1101.2 718.818 1100.26 717.173C1097.75 712.818 1095.7 708.198 1092.91 703.121ZM754.173 959.619C751.286 953.692 748.013 947.909 745.599 941.789C742.302 933.431 740.434 923.63 738.934 921.624C733.175 913.948 707.075 912.874 694.947 916.916C690.496 918.4 686.67 920.566 686.686 921.175C687.111 942.166 693.143 963.71 695.974 970.174C707.107 995.633 716.307 1009.66 718.416 1012.89C724.312 1021.88 730.448 1030.63 737.538 1038.7C744.5 1046.62 750.885 1055.09 758.144 1062.71C781.58 1087.33 806.581 1110.41 828.775 1136.27C835.488 1144.09 842.274 1151.81 847.985 1160.4C852.613 1167.38 857.024 1174.5 859.84 1182.49C862.358 1189.63 862.134 1189.93 856.262 1194.8C850.528 1199.55 844.777 1204.33 839.475 1209.56C832.906 1216.05 826.553 1222.8 820.554 1229.82C815.934 1235.22 811.891 1241.16 807.768 1246.98C800.702 1256.99 794.839 1267.72 789.914 1278.94C789.224 1280.52 786.16 1287.5 782.038 1298.96C777.955 1310.28 777.915 1317.47 777.049 1325.27C776.768 1327.74 777.923 1323.02 806.341 1314.9C838.264 1305.78 838.312 1306.3 870.908 1300.38C874.005 1299.81 891.642 1296.61 909.986 1296.09C919.884 1295.81 922.683 1297.77 928.033 1292.37C932.557 1287.8 936.832 1282.97 941.067 1278.12C942.936 1275.98 944.468 1273.55 946.144 1271.24C950.644 1265.04 955.312 1258.97 959.587 1252.63C964.592 1245.19 969.252 1237.52 974.032 1229.95C974.939 1228.5 974.915 1227.31 973.367 1226.06C970.383 1223.69 967.094 1221.45 964.824 1218.46C960.076 1212.19 955.745 1205.63 952.761 1198.19C949.096 1189.08 947.203 1179.61 946.264 1169.95C945.839 1165.66 946.425 1161.28 947.01 1156.88C948.029 1149.23 949.833 1141.98 953.298 1135.21C954.165 1133.52 953.716 1132.99 952.761 1132.03C949.569 1128.8 948.542 1124.79 948.334 1120.35C948.005 1113.22 950.186 1106.55 951.734 1099.78C952.103 1098.16 952.063 1097.71 950.708 1097.3C947.708 1096.42 944.596 1095.9 941.668 1094.85C930.976 1091.02 920.485 1086.67 909.978 1082.35C896.888 1076.96 884.151 1070.93 871.51 1064.62C856.415 1057.07 842.025 1048.29 827.845 1039.13C816.399 1031.73 805.667 1023.39 795.769 1014C786.61 1005.31 778.364 995.761 770.905 985.534C764.993 977.425 759.202 969.236 754.173 959.619ZM941.676 1288.83C939.31 1291.23 936.92 1293.61 934.586 1296.02C933.335 1297.31 933.278 1298.11 935.412 1298.47C937.971 1298.9 940.553 1299.47 942.992 1300.36C950.251 1303.04 957.477 1305.83 964.664 1308.72C968.442 1310.23 968.979 1310.17 970.696 1306.75C972.179 1303.8 973.591 1300.82 975.171 1297.92C980.305 1288.55 986.593 1279.94 993.346 1271.76C999.105 1264.78 1005.56 1258.38 1011.82 1251.84C1018.06 1245.31 1025.49 1240.27 1032.8 1235.05C1039.65 1230.15 1046.74 1225.73 1053.98 1221.44C1065.35 1214.72 1077.03 1208.87 1089.57 1204.79C1096.94 1202.4 1104.24 1199.75 1111.58 1197.26C1123.01 1193.38 1134.55 1189.82 1145.85 1185.59C1155.34 1182.04 1164.7 1178.01 1173.86 1173.68C1184.96 1168.45 1195.81 1162.7 1206.44 1156.47C1219.5 1148.81 1231.73 1139.94 1242.79 1129.76C1253.19 1120.19 1263.39 1110.28 1271.85 1098.68C1281.18 1085.85 1289.2 1072.27 1296.53 1058.25C1300.22 1051.19 1303.38 1043.84 1306.6 1036.55C1308.64 1031.96 1310.52 1027.28 1312.17 1022.54C1317.93 1006 1317.47 1005.91 1321.27 988.791C1325.62 969.228 1321.97 944.059 1321.41 940.217C1320.05 930.848 1318.03 921.263 1317.77 916.684C1317.73 916.01 1314.17 912.809 1305.2 911.911C1292.5 910.644 1285.33 912.513 1283.66 912.946C1279.91 913.924 1279.85 913.531 1270.16 916.379C1270.07 916.403 1267.88 917.357 1267.86 917.365C1266.38 917.879 1266.74 918.256 1266.46 919.796C1265.33 925.707 1264.37 931.666 1263.08 937.546C1260.26 950.339 1255.72 962.603 1250.44 974.506C1244.99 986.81 1237.93 998.287 1230.77 1009.68C1221.52 1024.37 1211.35 1038.33 1198.85 1050.37C1193.62 1055.42 1188 1060.07 1182.44 1064.74C1176.94 1069.37 1171.61 1074.31 1165.63 1078.21C1153.67 1086 1141.56 1093.67 1129.03 1100.47C1118.61 1106.12 1107.49 1110.47 1096.65 1115.34C1093.21 1116.88 1090.6 1117.4 1090.53 1117.93C1090.51 1118.16 1090.56 1118.15 1091.95 1120.41C1093.59 1123.08 1095.56 1126.12 1095.83 1126.66C1097.53 1130.05 1100.68 1134.06 1101.28 1139.12C1102.04 1145.57 1100.34 1151.8 1098.81 1157.84C1097.8 1161.86 1095.5 1166.02 1090.04 1166.65C1087.8 1166.91 1085.49 1168.45 1083.65 1169.96C1079.39 1173.45 1074.72 1174.55 1069.27 1174.59C1065.39 1174.61 1061.36 1175.63 1058.21 1178.84C1056.3 1180.79 1053.63 1183.05 1051.2 1183.17C1047.02 1183.38 1046.45 1185.82 1045.43 1188.83C1040.58 1202.94 1032.22 1214.51 1019.88 1222.81C1013.97 1226.8 1007.7 1229.95 1000.32 1230.99C995.64 1231.65 991.333 1232.25 986.665 1230.93C984.66 1230.36 982.398 1230.12 980.497 1233.48C974.794 1243.59 968.386 1253.33 961.68 1262.81C955.52 1271.49 949.256 1280.16 941.676 1288.83ZM900.265 1493.47C903.096 1480.6 907.347 1468.31 913.812 1456.86C921.255 1443.68 931.722 1433.14 943.296 1423.66C952.176 1416.4 961.319 1409.45 970.086 1402.05C973.254 1399.38 975.62 1395.74 978.452 1392.65C985.558 1384.86 991.462 1376.16 993.611 1365.79C995.063 1358.75 994.806 1351.38 992.175 1344.24C989.144 1336.02 983.377 1329.94 976.984 1324.78C965.386 1315.42 936.711 1300.84 909.336 1303.22C878.889 1305.86 878.953 1305.71 873.475 1306.52C857.024 1308.93 801.608 1322.43 787.604 1328.85C777.819 1333.33 776.375 1334.63 776.327 1335.4C775.509 1348.35 778.613 1359.22 779.182 1361.22C780.417 1365.54 783.666 1381.88 800.453 1390.67C809.677 1395.5 819.824 1395.32 829.649 1392.86C841.199 1389.96 852.092 1385.1 862.783 1379.83C869.12 1376.71 875.408 1373.45 881.913 1370.72C896.647 1364.52 906.441 1362.86 920.654 1357.17C923.1 1356.19 925.185 1356.57 925.57 1356.64C927.519 1357 930.479 1360.06 926.693 1362.71C923.285 1365.11 910.331 1368.05 888.065 1392.65C882.811 1398.45 877.437 1404.22 872.737 1410.49C864.7 1421.19 856.784 1431.82 846.429 1440.57C837.293 1448.3 827.219 1454.4 817.201 1460.64C808.891 1465.82 800.79 1471.28 793.708 1477.98C785.791 1485.45 777.61 1492.52 768.595 1498.52C763.261 1502.08 757.71 1505.49 751.855 1507.99C739.535 1513.25 734.851 1514.23 728.194 1514.97C728.098 1514.97 725.796 1515.83 728.426 1516.95C728.948 1517.18 738.188 1518.25 743.233 1518.2C751.077 1518.09 758.898 1518.37 766.79 1517.41C774.113 1516.53 781.677 1516.99 789.2 1518.05C796.379 1519.06 803.421 1520.36 810.279 1522.58C824.725 1527.22 839.05 1532.24 853.519 1536.81C861.291 1539.26 869.393 1540.25 877.526 1540.86C883.734 1541.34 889.605 1539.65 895.565 1538.55C905.214 1536.77 892.565 1528.54 900.265 1493.47ZM874.646 447.513C882.699 450.497 891.145 453.208 899.222 456.216C910.259 460.33 920.541 465.953 929.34 473.813C934.947 478.826 939.936 484.617 944.748 490.44C950.595 497.491 954.574 505.752 957.124 514.519C957.886 517.15 957.445 520.182 955.448 523.326C951.823 529.037 946.553 532.277 941.115 534.876C931.586 539.408 921.023 540.138 910.62 540.683C907.01 540.875 903.633 541.637 900.217 542.6C892.821 544.693 886.95 549.145 881.696 554.583C877.766 558.65 873.515 562.267 868.967 565.66C861.308 571.371 852.204 572.943 843.493 575.726C837.742 577.563 831.919 579.207 826.265 581.316C815.573 585.319 805.98 591.88 794.855 600.783C793.965 601.489 792.914 603.382 793.491 603.582C793.724 603.663 794.43 603.903 796.403 602.524C809.565 593.348 823.698 588.928 845.025 585.993C849.942 585.311 854.626 584.084 859.366 582.792C868.967 580.178 877.341 574.868 886.076 570.376C897.129 564.689 908.727 560.133 920.966 559.075C933.808 557.96 946.834 558.08 959.354 563.101C962.819 564.497 965.081 565.772 966.324 569.269C966.798 570.609 967.014 570.496 965.626 571.507C960.67 575.116 956.082 579.255 951.47 583.33C940.609 592.907 936.366 606.021 932.749 619.447C930.455 627.934 926.453 635.024 918.857 640.117C915.232 642.548 904.283 648.924 900.513 656.183C899.559 658.028 897.594 661.036 899.19 660.354C900.449 659.816 902.43 657.595 902.679 657.314C906.345 653.199 911.446 649.012 912.256 648.347C914.999 646.101 918.656 643.406 923.052 641.048C933.415 635.497 941.323 627.003 948.35 617.691C955.296 608.483 961.528 598.754 969.821 590.581C976.527 583.963 983.914 578.838 993.002 576.263C998.905 574.587 1004.76 573.769 1010.67 576.079C1019.29 579.456 1025.2 585.977 1028.45 594.27C1032.32 604.176 1036.18 613.977 1041.56 623.177C1046.24 631.174 1052.56 637.631 1058.98 644.063C1066.62 651.715 1074.49 659.151 1081.73 667.171C1090.66 677.061 1095.55 689.333 1100.22 701.669C1101.22 704.308 1106.65 715.946 1107.31 715.513C1109.19 714.254 1105.45 706.554 1104.68 702.455C1102.25 689.702 1097.07 678.152 1089.94 667.468C1082.67 656.576 1074.95 645.996 1067.96 634.936C1062.24 625.872 1057.98 616.247 1059.83 604.818C1060.46 600.959 1062.18 597.783 1064.58 595.586C1070.71 589.987 1078.69 589.121 1086.28 590.701C1094.38 592.385 1101.53 596.837 1107.46 602.86C1112.87 608.379 1117.03 614.892 1121.4 621.244C1134.33 640.053 1147.64 648.098 1149.14 649.461C1149.16 649.486 1150.96 650.48 1151.15 649.742C1151.18 649.59 1151.36 648.852 1150.74 647.801C1150.3 647.071 1147.82 644.962 1144.25 638.232C1141.25 632.594 1138.7 625.375 1136.03 619.456C1132.37 611.371 1128.39 603.598 1122.69 596.885C1115.74 588.696 1107 583.161 1096.65 580.161C1092.88 579.071 1089.33 577.186 1085.64 575.734C1083.75 574.988 1083.27 574.427 1084.83 572.477C1089.52 566.662 1096.05 563.743 1102.57 561.192C1111.55 557.679 1120.89 555.072 1130.05 552.04C1145.24 547.011 1159.67 540.45 1172.83 531.138C1177.38 527.922 1182.13 524.89 1187.1 522.403C1196.5 517.679 1206.65 514.727 1217.02 513.917C1245.45 511.688 1246.45 518.136 1251.61 516.853C1252.52 516.62 1246.41 511.014 1223.42 504.453C1206.72 499.68 1190.01 501.533 1187.12 501.854C1162.12 504.637 1162.78 507.316 1135.82 521.064C1127.21 525.451 1118.74 530.224 1109.83 533.881C1097.02 539.135 1083.16 539.969 1069.6 541.878C1068.51 542.03 1067.33 542.095 1066.26 541.862C1061.32 540.787 1058.73 537.434 1060.06 533.552C1060.62 531.94 1061.92 530.521 1063.1 529.205C1069.61 521.858 1077.99 516.973 1086.03 511.672C1090.84 508.495 1096 505.832 1100.63 502.416C1108.11 496.889 1110.69 488.564 1112.5 479.805C1114.08 472.073 1115.85 464.341 1118.09 456.785C1121.84 444.128 1128.76 433.356 1139.73 426.017C1147.83 420.611 1156.7 416.777 1166.65 415.414C1172.48 414.611 1178.1 414.291 1183.85 415.037C1184.22 415.085 1184.72 415.133 1184.95 414.94C1185.12 414.788 1185.09 414.09 1184.9 413.906C1184.27 413.288 1183.58 412.662 1182.8 412.261C1176.53 408.981 1169.84 407.064 1162.8 406.623C1155.78 406.19 1149.03 407.866 1142.45 410.032C1131.48 413.633 1122.4 420.411 1115.28 429.306C1104.84 442.339 1096.52 456.945 1086.12 470.092C1077.42 481.096 1066.91 489.606 1055.07 496.488C1045.55 502.039 1035.18 506.113 1025.6 511.591C1018.98 515.377 1012.28 514.84 1005.72 513.364C998.031 511.623 990.587 508.776 983.625 504.742C972.228 498.124 961.849 490.12 951.839 481.617C944.74 475.586 937.906 469.233 931.049 462.913C925.25 457.571 918.344 454.491 911.141 451.571C899.158 446.727 886.453 445.476 874.069 442.636C866.441 440.888 860.297 438.53 856.022 437.711C855.22 437.559 852.228 436.709 854.57 438.626C856.11 439.885 858.051 440.719 858.372 440.856C869.304 445.54 873.331 447.032 874.646 447.513ZM1062.77 1484.45C1059.22 1478.61 1056.23 1472.31 1051.99 1467.02C1045.1 1458.44 1037.32 1450.6 1030.04 1442.32C1026.11 1437.84 1022.13 1433.34 1018.76 1428.43C1012.43 1419.21 1006.93 1409.45 1002.04 1399.37C999.932 1395.01 998.287 1390.42 996.322 1385.98C995.985 1385.23 995.135 1384.63 994.389 1384.19C994.205 1384.07 993.395 1384.8 993.034 1385.28C988.662 1390.96 984.62 1396.92 979.888 1402.27C975.877 1406.79 971.185 1410.72 966.597 1414.68C962.121 1418.55 957.461 1422.2 952.753 1425.81C945.663 1431.22 938.66 1436.74 932.645 1443.42C932.324 1443.77 932.083 1444.21 931.811 1444.61C932.316 1444.74 932.821 1444.98 933.327 1444.98C938.364 1444.86 942.936 1446.78 947.644 1448.18C957.309 1451.06 966.212 1455.48 974.923 1460.64C984.187 1466.13 991.237 1473.63 997.461 1482.17C1001.8 1488.12 1004.94 1494.69 1007.61 1501.59C1012.48 1514.18 1017.91 1523.49 1018.38 1528.19C1019.62 1540.63 1013.09 1529.79 1012.72 1529.39C1011.69 1528.28 1009.53 1525.94 1004.22 1512.49C1000.17 1502.22 995.825 1492.24 989.224 1483.21C981.877 1473.14 972.091 1466.42 961.383 1461.27C952.897 1457.17 943.553 1454.87 934.538 1451.94C931.995 1451.11 929.3 1452.4 926.573 1451.98C925.594 1451.83 923.99 1453.99 923.108 1455.39C921.327 1458.17 919.787 1461.11 918.247 1464.05C914.365 1471.47 911.526 1479.28 909.28 1487.36C906.689 1496.73 904.115 1506.05 904.845 1515.94C905.534 1525.31 905.711 1530.17 907.171 1533.57C909.136 1538.15 924.504 1552.13 924.921 1552.48C956.218 1579.47 983.978 1549.7 1026.34 1567.86C1038.86 1573.23 1048.39 1582.51 1050.86 1579.68C1055.72 1574.12 1056.49 1570.13 1060.15 1561.51C1064.51 1551.29 1067.22 1540.5 1068.58 1529.62C1069.31 1523.77 1069.63 1517.6 1069.25 1511.4C1068.67 1502.13 1066.12 1493.62 1062.77 1484.45ZM969.019 1087.58C965.883 1090.83 962.803 1094.01 960.549 1098.11C956.443 1105.56 955.953 1113.48 956.17 1121.65C956.282 1125.78 957.87 1128.69 961.504 1129.2C967.423 1130.04 972.348 1132.71 977.16 1136.01C978.837 1137.16 980.513 1137.92 981.989 1134.76C984.86 1128.62 987.708 1122.54 989.785 1116.04C991.365 1111.12 993.411 1106.11 996.33 1101.92C1003.04 1092.34 1013.31 1089.17 1024.28 1088.86C1031.75 1088.64 1038.2 1092.41 1043.47 1097.57C1046.4 1100.43 1049.7 1102.14 1053.41 1103.35C1055.05 1103.89 1057.02 1103.83 1058.41 1104.71C1071.51 1113 1075.26 1126.92 1066.81 1140.77C1062.25 1148.23 1056.28 1154.82 1050.76 1161.67C1047.49 1165.72 1044.32 1169.63 1046.58 1175.35C1046.89 1176.13 1047.05 1176.97 1047.29 1177.78C1048.03 1177.35 1048.88 1177.04 1049.52 1176.47C1055.86 1170.94 1062.6 1166.67 1071.57 1167.5C1073.4 1167.67 1075.49 1166.28 1077.29 1165.31C1080.5 1163.58 1083.39 1160.89 1086.77 1159.94C1090.46 1158.9 1091.59 1156.43 1092.27 1153.51C1093 1150.38 1093.17 1147.1 1093.45 1143.87C1094.03 1137.13 1093.69 1136.21 1090.13 1130.98C1088.17 1128.08 1086.09 1125.18 1084.66 1122.01C1080.73 1113.28 1079.47 1104.4 1084.03 1095.36C1085.98 1091.51 1087.33 1087.35 1089.25 1083.47C1090.41 1081.13 1091.25 1078.25 1088.99 1077.11C1083.35 1074.26 1084.2 1069.33 1084.66 1064.87C1085.35 1058.25 1081.66 1054.64 1075.47 1056.7C1073.35 1057.42 1071.14 1057.91 1069.06 1058.74C1066.95 1059.57 1065.16 1059.2 1062.97 1058.67C1058.76 1057.65 1056.73 1054.71 1054.88 1051.4C1051.59 1045.47 1050.65 1045.02 1044.31 1047C1042.49 1047.56 1040.61 1047.93 1038.85 1048.65C1032.79 1051.14 1026.87 1050.87 1020.97 1048.14C1013.67 1044.74 1006.24 1043.54 998.271 1045.8C988.534 1048.58 980.457 1053.61 975.235 1062.45C972.268 1067.46 970.166 1072.87 974.473 1078.49C976.078 1080.59 975.484 1082.64 973.447 1084.22C972.196 1085.21 970.872 1086.1 969.019 1087.58ZM1056.08 1112.39C1054.52 1111.64 1053.05 1110.63 1051.41 1110.19C1046.73 1108.91 1042.42 1107.35 1039.09 1103.33C1037.24 1101.1 1034.51 1099.25 1031.81 1098.16C1023.1 1094.69 1012.26 1096.49 1004.99 1103.1C1000.38 1107.31 998.376 1112.99 996.402 1118.65C993.884 1125.87 991.863 1133.29 987.451 1139.69C985.398 1142.67 984.307 1145.87 985.157 1149.65C986.096 1153.8 986.962 1158.01 987.355 1162.23C987.724 1166.14 987.162 1170.13 987.499 1174.04C987.989 1179.57 988.735 1185.1 989.737 1190.56C990.363 1193.96 993.234 1195.5 996.787 1195.89C1002.5 1196.51 1007.18 1194.32 1011.59 1191.13C1015.62 1188.22 1019.91 1185.6 1023.5 1182.21C1028.86 1177.16 1034.28 1171.99 1038.64 1166.09C1045.04 1157.46 1051.26 1148.69 1058.34 1140.6C1062.12 1136.29 1064.13 1130.88 1064.11 1125.69C1064.08 1120.81 1061.6 1115.72 1056.08 1112.39ZM736.335 866.898C736.335 862.142 736.752 857.434 737.241 852.693C738.116 844.32 739.535 836.162 742.463 828.318C743.088 826.618 746.489 817.498 750.941 807.327C751.318 806.469 751.149 804.496 749.192 804.897C748.478 805.05 747.596 805.627 747.468 805.715C746.064 806.622 743.57 809.878 743.265 810.263C736.953 818.468 734.33 826.016 729.325 824.765C728.731 824.62 726.774 822.968 730.752 816.584C736.263 807.729 736.391 807.833 741.861 798.938C742.19 798.408 745.447 793.636 745.856 790.676C746.289 787.516 743.145 789.064 742.046 790.468C736.56 797.51 731.643 804.616 730.768 805.876C723.06 817.017 721.994 821.091 718.609 821.725C717.374 821.957 713.307 820.803 720.871 806.156C726.285 795.689 735.036 784.998 732.028 780.193C728.924 775.22 713.636 797.951 711.751 801.344C708.823 806.622 705.888 811.009 705.727 811.25C704.524 813.086 700.546 816.64 699.359 814.979C698.501 813.784 696.8 811.402 704.155 797.165C706.802 792.032 708.559 786.337 710.011 781.645C711.27 777.602 708.743 777.297 706.81 778.886C703.193 781.869 697.578 789.353 696.054 791.839C690.207 801.408 686.084 811.651 686.092 823.169C686.1 826.08 686.758 831.839 684.296 833.323C682.459 834.422 681.288 834.045 680.213 831.262C678.007 825.519 678.529 818.966 675.088 812.878C674.951 812.653 674.037 810.159 671.045 812.028C667.813 814.041 669.369 822.166 669.586 825.238C669.77 827.821 671.703 835.785 672.706 838.408C674.318 842.603 674.767 842.379 675.425 844.368C675.505 844.472 675.697 844.424 675.778 844.528C675.81 844.568 677.911 847.865 684.857 859.054C691.498 869.746 692.573 872.954 692.75 872.721C692.774 872.681 696.183 870.411 697.827 869.746C702.575 867.853 706.762 865.479 718.617 864.941C731.153 864.372 736.335 871.919 736.335 866.898ZM1268.12 809.1C1267.89 808.867 1262.04 802.683 1261.88 802.756C1261.86 802.764 1261.92 802.86 1261.9 802.844C1261.49 802.651 1261.79 802.322 1257.72 799.114C1255.52 797.366 1253.47 798.593 1254.52 801.376C1255.44 803.782 1257.08 806.678 1257.82 807.737C1266.34 819.96 1270.65 831.719 1271.47 833.933C1274.89 843.277 1277.24 855.068 1275.88 862.511C1275.69 863.578 1275.63 866.738 1275.7 866.658C1276.25 865.888 1283.4 861.973 1283.74 861.925C1285.83 861.629 1294.25 857.811 1304.5 858.805C1308.04 859.15 1309.95 857.257 1311.9 855.035C1312.58 854.265 1312.93 853.207 1313.51 852.34C1319.45 843.485 1325.14 834.478 1328.04 824.059C1331.83 810.391 1331.96 803.405 1330.5 797.558C1329.96 795.368 1326.69 794.029 1325.4 798.737C1321.49 813.062 1323.13 814.883 1319.57 815.3C1319.41 815.316 1318.6 815.413 1317.53 815.132C1314.43 814.33 1314.78 811.33 1314.65 809.678C1314.21 804.111 1312.62 798.874 1311.04 793.66C1308.31 784.677 1304.93 775.974 1297.94 769.277C1296.07 767.488 1294.03 764.705 1291.56 766.598C1289.48 768.186 1291.5 770.937 1292.6 772.894C1296.19 779.287 1300.04 785.543 1303.5 792.008C1304.32 793.532 1303.87 795.93 1303.58 796.499C1303.43 796.796 1302.77 798.144 1299.55 797.711C1298.66 797.59 1297.7 796.443 1297.15 795.529C1293.17 788.711 1288.57 782.343 1283.16 776.616C1281.46 774.819 1278.52 771.49 1274.78 770.753C1268.71 769.565 1270.59 774.723 1270.75 775.316C1272.05 780.145 1276.05 783.714 1285.37 794.967C1286.74 796.628 1288.44 798.2 1289.19 800.125C1289.82 801.753 1290.01 804.424 1289.09 805.587C1287.61 807.472 1285.51 806.886 1283.86 804.769C1280.3 800.205 1276.64 795.705 1272.82 791.366C1270.11 788.278 1267.21 785.326 1264.11 782.663C1263.06 781.773 1260.75 781.244 1259.67 781.813C1257.78 782.808 1258.3 784.901 1259.28 786.634C1259.45 786.931 1259.57 787.267 1259.76 787.548C1261.3 789.73 1262.65 792.088 1264.44 794.021C1268.38 798.264 1272.59 802.25 1276.59 806.437C1277.81 807.713 1279.19 809.156 1279.63 810.768C1280 812.092 1279.55 814.241 1278.62 815.188C1277.35 816.487 1275.35 816.495 1273.8 814.859C1272.13 813.086 1270.39 811.394 1268.12 809.1ZM837.357 1542.56C837.999 1542 839.86 1540.85 838.528 1539.97C838.216 1539.75 838.159 1539.9 834.013 1538.47C828.446 1536.54 822.334 1534.54 816.656 1532.26C808.041 1528.8 799.146 1526.37 790.034 1525.2C783.818 1524.39 777.418 1524.94 771.097 1525.13C769.902 1525.16 768.146 1526.03 767.664 1527.02C762.435 1537.69 753.451 1544.49 744.099 1550.98C731.907 1559.44 730.006 1562.32 727.119 1565.91C726.63 1566.53 726.116 1567.58 726.044 1567.73C725.563 1568.74 725.322 1570.23 726.092 1570.12C728.635 1569.79 729.092 1567.08 737.105 1565.22C745.615 1563.24 750.267 1565.42 765.611 1565.42C766.758 1565.42 773.528 1565.42 779.912 1564.83C786.714 1564.21 803.517 1564.65 815.164 1573.11C815.541 1573.38 815.525 1573.4 815.91 1573.67C816.463 1574.05 819.078 1575.81 819.663 1575.84C819.944 1575.87 820.947 1575.92 821.701 1572.9C821.901 1572.11 823.69 1565.51 823.866 1564.87C825.871 1557.48 829.096 1549.66 837.357 1542.56ZM979.575 1171.22C979.334 1164.98 980.024 1158.79 978.7 1152.47C977.168 1145.2 969.573 1137.64 962.931 1136.99C961.111 1136.82 960.381 1136.52 959.507 1138.23C952.44 1152.05 951.293 1178.44 959.892 1195.64C965.209 1206.28 967.84 1209.89 968.674 1211.04C970.76 1213.91 978.404 1223.42 980.698 1218.96C987.363 1206 987.331 1206.03 989.344 1202.18C984.018 1198.96 980.04 1183.5 979.575 1171.22ZM730.063 1588.26C736.872 1591.27 743.409 1593.79 751.254 1591.76C756.604 1590.37 762.419 1590.56 768.025 1590.49C780.113 1590.32 792.192 1590.35 804.279 1590.47C808.94 1590.53 812.396 1588.47 815.605 1585.38C817.121 1583.93 816.848 1582.94 815.412 1581.83C808.643 1576.54 801.151 1572.82 792.513 1572.47C784.676 1572.16 776.84 1572.72 768.98 1573.3C760.654 1573.91 752.208 1572.76 743.81 1572.39C733.07 1571.93 725.812 1578.74 725.066 1580.08C723.606 1582.71 726.79 1586.81 730.063 1588.26ZM701.468 875.866C697.787 877.045 696.864 878.047 694.506 884.215C688.876 898.901 687.841 906.409 687.223 909.978C686.678 913.162 689.421 910.997 692.597 910.002C713.075 903.61 733.48 910.628 734.33 910.949C736.431 911.735 736.335 910.804 736.295 910.339C735.998 906.914 735.356 903.513 735.252 900.096C735.076 894.089 734.955 888.065 735.292 882.074C735.356 881.023 735.677 875.2 726.197 872.577C718.392 870.419 703.369 875.256 701.468 875.866ZM1268.67 910.692C1269.97 910.058 1275.54 907.355 1285.95 905.543C1296.46 903.714 1311.73 906.168 1314.22 906.994C1314.97 907.251 1314.93 907.347 1315.64 907.347V907.476C1315.58 907.219 1308.01 868.591 1307.83 867.283C1307.62 865.831 1307.28 865.31 1305.89 865.471C1302.51 865.864 1299.13 866.192 1295.76 866.609C1274.76 869.248 1273.35 882.587 1271.81 890.239C1268.67 905.96 1268.67 909.04 1268.67 910.692ZM883.012 1547.62C876.122 1547.1 869.2 1546.93 862.31 1546.42C859.824 1546.23 859.768 1547.83 860.265 1549.15C864.155 1559.42 868.141 1569.57 876.603 1577.24C879.362 1579.75 882.306 1582.08 885.667 1581.91C889.597 1581.71 893.19 1578.65 893.832 1577.78C899.005 1570.75 899.503 1555.17 900.914 1548.15C901.356 1545.93 902.134 1543.9 900.08 1544.41C898.821 1544.71 892.027 1548.3 883.012 1547.62ZM1019.8 1194.13C1013.45 1199.84 1006.37 1203.81 997.557 1203.75C996.787 1203.75 995.56 1204.04 995.32 1204.57C992.528 1210.52 989.954 1216.57 987.146 1222.52C986.681 1223.51 986.015 1223.81 987.612 1224.03C998.175 1225.49 1007.64 1222.3 1016.35 1216.69C1023.28 1212.24 1028.63 1205.97 1032.74 1198.91C1035.68 1193.87 1037.69 1188.24 1039.8 1182.75C1040.32 1181.39 1039.6 1179.53 1039.46 1177.91C1038.17 1178.76 1036.75 1179.45 1035.62 1180.47C1033.55 1182.35 1031.77 1184.57 1029.65 1186.38C1026.67 1188.9 1023.46 1191.18 1019.8 1194.13ZM1080.6 532.927C1087.9 532.734 1094.71 530.368 1101.7 528.604C1110.16 526.47 1113.47 524.032 1125.07 519.676C1133.29 516.596 1114.81 515.682 1108.78 513.797C1104.29 512.393 1102.23 509.739 1096.13 513.829C1090.59 517.551 1085.06 521.264 1078.95 525.548C1069.19 532.943 1069.1 532.951 1068.99 533.48C1068.73 534.756 1075.18 533.063 1080.6 532.927Z" fill="black"/>
<path d="M998.166 1161.09C1000.22 1161.45 1001.69 1163.65 1002.74 1164.26C1005.97 1166.1 1007.42 1168.21 1016.43 1169.74C1021.52 1170.61 1022.93 1171.67 1023.4 1172.01C1024.16 1172.59 1027.6 1174.9 1022.63 1177.8C1017.32 1180.89 1011.83 1180.46 1006.5 1178.32C1002.79 1176.83 999.081 1175.05 996.442 1171.7C992.295 1166.42 994.685 1162.43 994.806 1162.26C995.56 1161.15 997.332 1160.94 998.166 1161.09Z" fill="black"/>
<path d="M1022.58 1110.09C1025.57 1112.43 1026.43 1113.95 1023.25 1117.13C1021.72 1118.65 1009.36 1118 1007.28 1116.88C1005.1 1115.7 1005.18 1115.57 1005 1115.47C1003.5 1114.61 1003.77 1113.56 1003.82 1113.38C1003.97 1112.79 1005.25 1110.94 1006.33 1110.3C1013.78 1105.82 1017.06 1105.77 1022.58 1110.09Z" fill="black"/>
<path d="M1020.91 1128.88C1020.51 1132.46 1015.43 1132.67 1014.86 1132.69C1014.08 1132.73 1014.09 1132.74 1013.3 1132.77C1012.95 1132.78 1006.9 1132.82 1005.77 1132.64C1003.68 1132.31 1002.17 1130.74 1002.37 1128.61C1002.44 1127.89 1002.51 1127.22 1004.68 1125.4C1010.72 1120.36 1016.77 1123.42 1016.97 1123.48C1021.35 1124.79 1020.96 1128.35 1020.91 1128.88Z" fill="black"/>
<path d="M1041.45 1119.8C1042.86 1118.59 1046.98 1118.77 1048.41 1119.54C1051.4 1121.15 1053.49 1124.2 1054.18 1127.58C1054.45 1128.92 1053.22 1131.1 1052.02 1132.01C1051.71 1132.25 1050.33 1133.29 1047.13 1131.38C1046.53 1131.02 1044.34 1129.28 1043.64 1128.67C1041.3 1126.61 1040.73 1125.08 1040.4 1124C1040.3 1123.67 1039.4 1121.55 1041.45 1119.8Z" fill="black"/>
<path d="M1045.81 1143.01C1045.79 1143.02 1045.53 1143.31 1045.29 1143.43C1041.26 1145.44 1035.33 1141.35 1035.13 1141.24C1030.93 1138.91 1032.03 1137.03 1032.17 1136.7C1032.81 1135.19 1033.98 1133.3 1035.34 1132.81C1042.11 1130.39 1049 1137.73 1046.94 1141.55C1046.63 1142.13 1046.38 1142.44 1046.32 1142.51C1046.29 1142.56 1046.02 1142.9 1045.81 1143.01Z" fill="black"/>
<path d="M1013.95 1152.52C1018.16 1150.41 1023.09 1153.9 1023.63 1157.6C1023.83 1158.88 1022.7 1160.94 1021.56 1161.75C1015.85 1165.78 1010.01 1160.29 1009.88 1157.05C1009.84 1156.14 1010.08 1154.45 1013.95 1152.52Z" fill="black"/>
<path d="M1009.72 1187.22C1009.14 1189.49 1004.86 1189.74 1002.18 1188.89C997.966 1187.55 997.509 1186.35 997.437 1184.01C997.285 1179.01 1002.22 1181.06 1005.58 1182.55C1007.82 1183.55 1010.47 1184.33 1009.72 1187.22Z" fill="black"/>
</svg>
