<svg width="1296" height="354" viewBox="0 0 1296 354" fill="none" xmlns="http://www.w3.org/2000/svg">
<path d="M541.255 22.8673C541.414 17.194 550.191 15.5904 554.327 19.477C558.463 23.3637 559.016 29.6318 559.303 35.3001C560.361 56.1404 561.419 76.9807 562.478 97.821C567.275 98.7035 572.072 99.586 576.869 100.469C581.575 101.334 586.425 102.257 590.413 104.899C594.402 107.542 597.341 112.381 596.279 117.046C594.793 123.579 586.73 126.242 580.049 125.746C573.368 125.25 566.713 122.808 560.119 123.996C555.48 149.436 553.652 175.388 554.678 201.227C554.892 206.616 555.214 212.134 553.633 217.29C552.053 222.447 548.1 227.259 542.784 228.171C536.485 229.252 530.357 224.449 527.801 218.592C525.245 212.734 525.438 206.091 525.784 199.709C527.204 173.466 530.443 147.32 535.469 121.523C531.648 117.799 525.525 117.934 520.327 119.141C515.13 120.348 509.913 122.393 504.63 121.645C499.347 120.897 494.163 115.816 495.782 110.732C496.856 107.358 500.351 105.444 503.624 104.091C513.973 99.8135 525.229 97.744 536.423 98.0603C538.498 98.1189 539.23 95.3563 539.288 93.2806C539.944 69.8095 540.6 46.3384 541.255 22.8673Z" fill="black"/>
<path d="M1144.67 0.574611C1145.88 1.43163 1146.28 3.02167 1146.57 4.47684C1151.36 28.2338 1151.58 52.9035 1147.21 76.7411C1146.05 83.0322 1144.73 90.0906 1148.34 95.3712C1152.41 101.325 1160.64 102.127 1167.65 103.808C1174.67 105.489 1182.59 110.831 1181.13 117.893C1179.41 126.231 1167.66 126.47 1159.34 124.664C1154.31 123.572 1149.27 122.479 1144.24 121.387C1140.84 144.607 1139.27 168.095 1139.54 191.561C1139.64 199.857 1139.79 208.77 1135.15 215.648C1130.51 222.527 1118.98 225.18 1114.14 218.44C1111.5 214.767 1111.76 209.832 1112.13 205.327C1114.44 177.205 1116.75 149.084 1119.06 120.963C1114.01 115.451 1104.84 121.507 1097.51 120.079C1091.11 118.834 1087.25 110.59 1090.38 104.879C1100.93 100.7 1112.21 98.395 1123.55 98.1057C1125.39 74.7788 1127.23 51.4519 1129.07 28.125C1129.82 18.53 1131.14 7.82546 1138.61 1.75473C1140.32 0.357314 1142.86 -0.704503 1144.67 0.574611Z" fill="black"/>
<path d="M783.807 115.964C789.938 115.379 793.624 122.833 793.856 128.987C794.088 135.142 792.917 141.973 796.59 146.918C799.931 131.478 816.054 119.951 831.744 121.784C841.718 122.95 850.5 128.648 858.873 134.191C866.611 126.067 877.236 120.236 888.455 120.083C899.673 119.929 911.211 126.241 915.509 136.605C917.95 142.488 917.979 149.052 917.972 155.422C917.955 170.714 917.939 186.005 917.922 201.296C917.916 206.235 917.677 211.753 914.124 215.181C908.813 220.305 899.202 216.984 895.406 210.656C891.61 204.328 891.928 196.45 892.363 189.084C893.119 176.298 893.874 163.513 894.63 150.727C894.86 146.834 890.13 144.152 886.32 144.984C882.51 145.815 879.654 148.908 877.228 151.962C867.938 163.652 861.018 177.219 857.008 191.603C855.116 198.386 853.768 205.564 849.625 211.259C845.483 216.953 837.405 220.604 831.246 217.191C822.502 212.346 824.722 199.351 828.15 189.961C831.457 180.901 834.765 171.84 838.072 162.78C840.142 157.108 841.754 149.647 836.978 145.953C830.75 141.135 822.498 148.54 818.314 155.211C805.755 175.238 794.553 196.115 784.812 217.654C782.479 222.811 779.657 228.547 774.278 230.306C766.225 232.94 758.27 224.201 757.825 215.74C757.38 207.28 761.674 199.413 764.852 191.559C772.543 172.549 774.02 151.68 775.126 131.203C775.471 124.809 777.433 116.573 783.807 115.964Z" fill="black"/>
<path d="M224.187 67.2986C227.6 71.2199 230.722 75.6426 231.73 80.7428C232.738 85.8431 231.162 91.7414 226.813 94.5896C222.943 97.1233 217.665 96.7254 213.603 94.5125C209.542 92.2997 206.536 88.5415 204.168 84.569C202.838 82.3383 201.672 80.0096 200.684 77.6081C200.823 71.9408 205.421 66.7069 211.023 65.8382C214.005 65.3756 216.847 63.3002 219.778 64.0206C221.586 64.465 222.964 65.8942 224.187 67.2986Z" fill="black"/>
<path d="M965.179 207.258C961.097 199.939 961.151 191.107 961.346 182.729C961.63 170.541 962.097 157.902 967.577 147.011C969.451 143.287 971.872 139.862 974.485 136.613C980.961 128.56 989.062 121.286 999.003 118.466C1008.94 115.647 1020.94 118.294 1026.83 126.779C1029.11 130.047 1034.19 129.34 1037.7 127.463C1041.21 125.587 1044.63 122.826 1048.6 123.062C1052.6 123.301 1055.85 126.706 1057.15 130.498C1058.45 134.291 1058.19 138.419 1057.85 142.414C1056.28 160.903 1053.38 179.844 1058.2 197.763C1059.65 203.158 1061.8 208.489 1061.76 214.076C1061.71 219.663 1058.68 225.765 1053.26 227.107C1049.08 228.142 1044.59 226.011 1041.78 222.753C1038.96 219.495 1037.51 215.284 1036.41 211.119C1034.58 204.216 1033.5 197.114 1033.21 189.979C1025.8 202.087 1015.96 213.548 1002.64 218.451C989.323 223.355 972.091 219.653 965.179 207.258ZM1021.83 151.836C1016.47 145.626 1009.72 138.855 1001.56 139.721C993.147 140.615 987.839 149.323 985.741 157.519C982.87 168.733 983.487 180.507 984.123 192.066C984.193 193.331 984.329 194.74 985.28 195.578C990.028 199.761 998.153 199.249 1002.34 194.502C1004.08 192.531 1005.12 190.063 1006.31 187.719C1010.24 179.963 1016.06 173.176 1023.13 168.115C1024.56 167.092 1023.02 164.406 1024.3 163.201C1027.43 160.248 1024.65 155.095 1021.83 151.836Z" fill="black"/>
<path d="M1290.17 125.146C1292.18 128.374 1292.09 132.422 1292.08 136.221C1292.05 146.599 1293.11 156.98 1295.23 167.139C1290.89 177.19 1292.83 188.976 1289.19 199.306C1286.27 207.597 1279.91 214.351 1272.52 219.113C1261.04 226.511 1246.27 229.435 1233.38 224.94C1220.49 220.444 1210.3 207.8 1210.55 194.146C1210.87 177.457 1211.18 160.769 1211.5 144.08C1211.57 140.298 1211.64 136.5 1212.28 132.772C1215.48 114.09 1234.67 99.6491 1253.51 101.747C1259.87 102.455 1266.55 105.274 1269.41 111C1273.23 118.659 1285.66 117.872 1290.17 125.146ZM1231.45 177.793C1230.93 182.264 1230.92 186.82 1231.79 191.236C1232.53 194.997 1234.12 198.909 1237.42 200.869C1240.48 202.691 1244.33 202.432 1247.82 201.696C1258.37 199.467 1268.96 191.75 1269.67 180.99C1269.86 178.116 1269.37 175.042 1270.73 172.5C1273.72 166.876 1272.95 160.08 1272.11 153.766C1270.67 143.056 1264.67 133.035 1255.9 126.719C1251.27 123.383 1244.5 125.637 1240.45 129.656C1234.5 135.555 1232.37 144.317 1231.91 152.682C1231.45 161.046 1232.41 169.472 1231.45 177.793Z" fill="black"/>
<path d="M630.549 183.403C631.716 173.694 632.883 163.985 634.051 154.276C635.534 141.939 637.816 128.172 647.841 120.832C658.156 113.279 672.409 115.616 684.91 118.291C692.51 119.916 700.289 121.614 706.852 125.776C714.743 130.781 720.16 138.937 723.918 147.492C725.235 150.492 726.383 153.585 727 156.802C728.845 166.413 725.851 176.244 722.513 185.444C719.694 193.214 716.553 200.976 711.692 207.662C698.233 226.174 671.285 233.4 650.369 224.106C641.751 220.277 633.737 213.063 632.668 203.693C632.172 199.343 633.017 194.319 630.035 191.112C632.346 189.338 632.603 185.469 630.549 183.403ZM688.446 143.568C684.707 141.19 680.858 138.767 676.515 137.892C672.172 137.017 667.159 138.021 664.419 141.503C662.893 143.443 662.229 145.906 661.661 148.307C658.329 162.391 657.062 176.96 657.912 191.407C658.006 193.006 658.132 194.631 658.714 196.123C660.254 200.072 664.744 202.225 668.983 202.309C673.221 202.392 677.296 200.821 681.242 199.274C683.395 198.431 685.566 197.578 687.497 196.306C691.346 193.773 693.965 189.771 696.165 185.721C699.144 180.234 701.59 174.334 702.184 168.118C702.778 161.902 701.348 155.308 697.311 150.545C694.869 147.665 691.632 145.594 688.446 143.568Z" fill="black"/>
<path d="M220.443 153.249C220.24 164.203 220.037 175.157 219.833 186.111C219.598 198.8 219.357 211.551 217.137 224.046C215.868 231.185 207.242 235.462 200.289 233.405C193.335 231.348 188.595 224.374 187.637 217.187C186.678 209.999 188.949 202.717 192.335 196.305C192.96 195.123 193.644 193.867 193.522 192.536C193.089 187.817 193.526 183.067 193.963 178.349C195.178 165.225 196.392 152.101 197.607 138.978C198.084 133.824 199.363 127.6 204.273 125.963C206.912 125.083 209.874 125.939 212.179 127.494C219.991 132.766 220.618 143.826 220.443 153.249Z" fill="black"/>
<path d="M130.059 198.276C126.888 207.881 119.499 215.403 112.345 222.554C100.354 234.539 84.4649 247.552 68.3867 242.177C52.737 236.944 39.0164 226.134 30.268 212.143C30.5702 221.468 29.5255 233.032 20.9229 236.643C12.7453 240.076 3.32398 232.79 0.960807 224.242C-1.40237 215.694 1.07851 206.657 3.19692 198.044C9.61646 171.946 12.7302 145.166 15.8291 118.469C16.6905 111.048 17.552 103.626 18.4134 96.2051C20.1021 81.6577 21.793 67.0713 21.793 52.4263C21.7929 37.3847 20.1242 21.6658 26.1558 7.88646C30.4706 6.93716 34.9404 9.6257 37.3786 13.31C39.8168 16.9942 40.6387 21.4886 41.2859 25.8589C42.1537 31.7185 42.8053 37.6101 43.2388 43.5178C44.6423 62.6432 43.7579 81.8544 42.873 101.011C42.5904 107.127 42.3079 113.244 42.0253 119.361C55.1688 107.652 74.2917 103.049 91.3236 107.494C108.356 111.939 122.79 125.3 128.536 141.938C132.556 153.579 132.46 166.182 132.32 178.497C132.244 185.161 132.148 191.948 130.059 198.276ZM90.3693 207.725C96.2311 202.668 102.345 197.244 104.789 189.898C106.363 185.166 106.253 180.062 106.128 175.077C106.005 170.208 105.882 165.339 105.759 160.47C105.64 155.787 105.507 151.019 103.988 146.588C102.469 142.157 99.3166 138.035 94.8778 136.539C92.6972 135.804 90.1618 135.647 88.5443 134.01C83.4479 128.853 74.6504 130.873 68.3899 134.53C62.9165 137.727 58.0166 141.902 53.9919 146.799C46.6415 155.743 42.3823 166.801 38.9801 177.866C36.1465 187.082 33.8214 196.454 32.0189 205.926C34.5746 205.573 35.9844 202.892 37.4377 200.761C38.891 198.629 41.7797 196.662 43.8482 198.205C47.8302 201.173 51.8123 204.142 55.7944 207.111C62.1775 211.87 69.5942 216.89 77.4206 215.427C82.4186 214.493 86.5196 211.047 90.3693 207.725Z" fill="black"/>
<path d="M302.443 230.318C295.447 226.973 288.453 222.831 284.248 216.316C282.084 212.963 280.768 209.137 279.714 205.289C272.887 180.356 276.778 152.679 290.215 130.595C295.121 122.533 301.589 114.936 310.316 111.345C327.361 104.329 346.222 114.417 361.867 124.163C361.887 118.182 365.529 112.198 371.094 110.004C376.658 107.811 383.783 110.009 386.65 115.259C388.888 119.358 388.416 124.341 387.882 128.98C383.586 166.315 379.291 203.649 374.995 240.984C373.665 252.541 372.332 264.121 369.834 275.482C366.429 290.975 360.859 305.99 353.337 319.955C348.741 328.488 343.293 336.772 335.766 342.877C322.565 353.581 303.316 356.229 287.715 349.487C272.113 342.745 260.852 326.912 259.601 309.962C258.808 299.21 262.549 287.315 271.802 281.783C281.056 276.25 295.732 280.723 297.608 291.34C298.581 296.85 294.329 303.612 288.823 302.617C283.3 312.783 290.598 327.415 302.042 329.118C315.967 331.191 326.777 317.357 332.761 304.614C344.466 279.689 350.673 252.199 350.811 224.663C337.928 223.197 326.424 235.168 313.515 233.937C309.629 233.566 305.965 232.002 302.443 230.318ZM360.171 149.036C360.505 146.457 360.786 143.694 359.597 141.381C358.688 139.615 357.04 138.361 355.395 137.247C347.532 131.924 337.825 128.318 328.562 130.409C320.012 132.339 313.078 138.915 308.789 146.559C300.818 160.764 300.987 178.016 302.392 194.244C302.757 198.455 303.236 202.808 305.36 206.462C307.484 210.117 311.711 212.892 315.844 212.006C319.428 211.238 322.325 207.944 325.989 208.065C334 208.329 340.927 202.872 347.057 197.708C348.8 196.239 350.581 194.726 351.7 192.741C352.605 191.136 353.027 189.311 353.426 187.513C356.248 174.796 358.499 161.954 360.171 149.036Z" fill="black"/>
</svg>
